# xmcd
#
# Track frame offsets: 
#        150
#        16962
#        34448
#        49948
#        72468
#        97717
#        114763
#        132205
#        163244
#        185790
#        207231
#
# Disc length: 3006 seconds
#
# Revision: 0
# Processed by: cddbd v1.5.2PL0 Copyright (c) Steve Scherf et al.
# Submitted via: ExactAudioCopyFreeDBPlugin 1.0
#
DISCID=990bbc0b
DTITLE=The Lone Mountain Trio - The Breaks and the Badlands
DYEAR=2018
DGENRE=Bluegrass
TTITLE0=Rocky Road Blues
TTITLE1=Riding My Thumb to Mexico
TTITLE2=Socorro
TTITLE3=The Mountain
TTITLE4=Little Georgia Rose - Big Sciota
TTITLE5=Angus MacKenzie
TTITLE6=(Say) Won't You Be Mine
TTITLE7=Shady Grove - Red Haired Boy
TTITLE8=Prisoner's Song
TTITLE9=Halloween Rehearsal
TTITLE10=It Looks Like It's Never Gonna Rain
EXTD=
EXTT0=
EXTT1=
EXTT2=
EXTT3=
EXTT4=
EXTT5=
EXTT6=
EXTT7=
EXTT8=
EXTT9=
EXTT10=
PLAYORDER=
